<?xml version="1.0" encoding="UTF-8" standalone="no" ?>
<!DOCTYPE svg PUBLIC "-//W3C//DTD SVG 1.1//EN" "http://www.w3.org/Graphics/SVG/1.1/DTD/svg11.dtd">
<svg xmlns="http://www.w3.org/2000/svg" xmlns:xlink="http://www.w3.org/1999/xlink" version="1.1" width="1080" height="1080" viewBox="0 0 1080 1080" xml:space="preserve">
<desc>Created with Fabric.js 5.2.4</desc>
<defs>
</defs>
<rect x="0" y="0" width="100%" height="100%" fill="transparent"></rect>
<g transform="matrix(1 0 0 1 540 540)" id="c6f6a7d6-e4de-491a-a191-111a62dd71b7"  >
</g>
<g transform="matrix(1 0 0 1 540 540)" id="b9ec987b-b861-43e9-a6cd-236b573c85ab"  >
<rect style="stroke: none; stroke-width: 1; stroke-dasharray: none; stroke-linecap: butt; stroke-dashoffset: 0; stroke-linejoin: miter; stroke-miterlimit: 4; fill: rgb(255,255,255); fill-rule: nonzero; opacity: 1; visibility: hidden;" vector-effect="non-scaling-stroke"  x="-540" y="-540" rx="0" ry="0" width="1080" height="1080" />
</g>
<g transform="matrix(2.19 0 0 2.19 540 540)"  >
<path style="stroke: none; stroke-width: 0.86; stroke-dasharray: none; stroke-linecap: butt; stroke-dashoffset: 0; stroke-linejoin: miter; stroke-miterlimit: 4; fill: rgb(255,255,255); fill-rule: nonzero; opacity: 1;" vector-effect="non-scaling-stroke"  transform=" translate(-281.5, -243.83)" d="M 281.50195 61.534524 C 251.28453 61.534524 226.19037 80.380549 217.82227 105.92124 C 208.69001 101.58694 198.61369 98.913431 187.6582 98.913431 C 150.63941 98.913431 120.62891 126.80692 120.62891 161.21226 C 120.62891 162.69413 120.93784 164.04017 121.04687 165.49546 C 89.601455 175.65426 67.003906 203.28416 67.003906 235.97007 C 67.003906 270.88813 92.797485 300.12914 127.61719 308.34702 C 138.1998092888923 321.1413277057047 154.5601767810425 328.66053719099244 171.92383 328.71031 C 181.99972677180608 328.67529882347736 191.87952847249616 326.1189877514314 200.52539 321.30991 C 213.3331410351567 335.5196368282597 231.74878060993188 343.69386198123084 251.12305 343.7689 C 267.71146019351335 343.7498441037745 283.717001983817 337.78624428193154 296.10937 327.00718 C 311.7568972408997 333.74069630528044 329.5167953683846 337.31678457700286 347.61523 337.37827 C 378.2114389193589 337.347522026276 407.21956256466166 327.2900766972417 426.8418 309.90952 C 465.91153 304.80045 496 273.69077 496 235.97007 C 496 203.28416 473.40245 175.65342 441.95703 165.49546 C 442.06696 164.04017 442.375 162.6933 442.375 161.21226 C 442.375 126.80692 412.36449 98.913432 375.3457 98.913431 C 364.39021 98.913431 354.3139 101.58942 345.18164 105.92124 C 336.81354 80.381379 311.71936 61.534524 281.50195 61.534524 z M 213.49609 245.64976 C 218.00534387087725 245.64957910942036 222.32996251007768 247.440792433229 225.51848744052543 250.6293154882901 C 228.70701237097322 253.81783854335117 230.49822823838235 258.1424561290171 230.49805 262.65171 C 230.49822823838235 267.16096387098287 228.70701237097322 271.4855814566488 225.51848744052546 274.67410451170986 C 222.3299625100777 277.862627566771 218.00534387087728 279.6538408905796 213.49609 279.65366 C 204.10678009239604 279.6529542052133 196.49571884747405 272.04101992679557 196.49609 262.65171 C 196.49571884747408 253.2624000732044 204.10678009239604 245.6504657947867 213.49609 245.64976 z M 281.50195 245.64976 C 286.0112038708773 245.64957910942036 290.3358225100777 247.440792433229 293.52434744052545 250.6293154882901 C 296.71287237097323 253.81783854335117 298.50408823838234 258.1424561290171 298.50391 262.65171 C 298.5040882383824 267.16096387098287 296.71287237097323 271.4855814566488 293.5243474405255 274.67410451170986 C 290.3358225100777 277.862627566771 286.0112038708773 279.6538408905796 281.50195 279.65366 C 276.99269786170316 279.65383823820827 272.66808179164144 277.86262374347956 269.4795590240809 274.6741009759191 C 266.29103625652044 271.48557820835856 264.49982176179174 267.16096213829684 264.5 262.65171 C 264.49982176179174 258.1424578617031 266.29103625652044 253.8178417916414 269.4795590240809 250.6293190240809 C 272.66808179164144 247.4407962565204 276.9926978617032 245.64958176179175 281.50195 245.64976 z M 349.50781 245.64976 C 358.89711990760395 245.6504657947867 366.50818115252594 253.2624000732044 366.50781 262.65171 C 366.50818115252594 272.04101992679557 358.897119907604 279.6529542052133 349.50781 279.65366 C 344.99855786170315 279.65383823820827 340.6739417916414 277.86262374347956 337.4854190240809 274.6741009759191 C 334.2968962565204 271.48557820835856 332.5056817617917 267.16096213829684 332.50586 262.65171 C 332.5056817617917 258.1424578617031 334.2968962565204 253.8178417916414 337.4854190240809 250.6293190240809 C 340.6739417916414 247.4407962565204 344.9985578617032 245.64958176179175 349.50781 245.64976 z M 116.47266 325.52866 C 113.30315870216907 325.6432181558678 110.17350436087916 326.50228704824343 107.32226999999999 328.04038 C 106.70309121808062 327.3361509477669 105.95124701089662 326.7694495232756 105.10937 326.37241 C 101.5573466798023 324.6951843758877 97.24996705330874 326.3592027209785 95.488281 330.08921 C 92.64532890130968 328.7460819392237 89.35849114179334 328.6440406034367 86.35091003096018 329.80553626631394 C 83.34332892012702 330.9670319291912 80.86139844277507 333.2969098686635 79.451172 336.28257 C 76.56259115236523 342.41692663689224 78.88009313603985 349.6238474825709 84.664062 352.49351 C 84.61967130232837 352.5705389276239 84.57604922861485 352.6480165361376 84.533203 352.72593 C 83.09474264515093 355.7710932122241 82.86711587539602 359.23567301398305 83.90039831966308 362.3574962534532 C 84.93368076393013 365.47931949292337 87.14323066993236 368.00266074789874 90.042969 369.37241 C 95.1888878737664 371.7862223735797 101.4065737158961 370.11088568202047 104.98242 365.34702 C 105.66545498988442 365.79258637520525 106.37503174027283 366.19498484596204 107.10741999999999 366.5521 C 112.05400507612919 368.8891347009347 117.77293771902538 369.0667991736861 123.0060466635249 367.0460070452517 C 128.23915560802442 365.02521491681733 132.55774479166988 360.97150939252555 135.01172 355.77671 C 137.46534319469984 350.5818960558546 137.85337799856978 344.67170273400734 136.09046011992015 339.3463213101816 C 134.3275422412705 334.0209398863559 130.55808273408917 329.7166039217493 125.61133 327.38023 C 122.76784701615466 326.04767231532134 119.64219925615964 325.4143902706722 116.47265999999998 325.52866 z M 114.88672 383.05406 C 109.55860549286255 382.9519718962088 104.57611531040283 385.47374211663305 101.81641 389.66929 C 99.76743384223043 392.7835770876198 99.14681734100053 396.5193941099554 100.09110588131111 400.05480260324305 C 101.03539442162169 403.5902110965307 103.46722619922988 406.6355691048421 106.85156 408.52085 C 108.29904924222939 409.3135363839872 109.88198539233683 409.8748626027828 111.53319999999998 410.18101 C 111.23797316706542 415.6927190045014 114.30786168258534 420.96118121891516 119.51562 423.88023 C 127.30847989639159 428.22169102601674 137.36885069817475 426.0513431767066 141.98633 419.03257 C 143.70376564420258 416.4182670213275 144.48466846730847 413.3696790803521 144.22266 410.3021 C 146.22354166710994 409.11462913094925 147.9067799172874 407.52620127114034 149.14648 405.65562 C 151.31608365184402 402.35802206243363 151.97319042045893 398.40228239654823 150.97321620264074 394.6587878244217 C 149.97324198482255 390.9152932522952 147.3981171693803 387.6907576474792 143.81445 385.69468 C 137.93103322045772 382.4276538957099 130.42730063666804 383.03651322977703 125.25586 387.20054 C 124.37444803539294 386.36687706103487 123.38146383681836 385.63969627920585 122.30078 385.03648 C 120.06132582414202 383.7883029001043 117.5043065461034 383.1045903111626 114.88672 383.05406 z" stroke-linecap="round" />
</g>
</svg>