<svg xmlns="http://www.w3.org/2000/svg" viewBox="0 0 512 512" style="height: 150px; width: 150px;"><g class="" transform="translate(0,0)" style=""><path d="M149.725 16.338 90.627 79.926v348.678l59.098 63.582 18.584-61.58h51.895l37.91 61.58 37.91-61.58h51.895l18.584 61.58 59.098-63.582V79.926l-59.098-63.588-19.188 63.588v1.97h-50.058v-1.97l-39.143-63.588-39.142 63.588v1.97h-50.06v-1.97l-19.188-63.588zm19.187 84.244h50.06v142.486h-50.06V100.582zm128.346 0h50.058v142.486h-50.058V100.582zM168.912 261.756h50.06v150.162h-50.06V261.756zm128.346 0h50.058v150.162h-50.058V261.756z" fill="#ffffff" fill-opacity="0.3"></path></g><g class="" transform="translate(256,256)" style=""><g><circle cx="128" cy="128" r="128" fill="#000000" fill-opacity="1"></circle><circle stroke="#ffffff" stroke-opacity="1" fill="#000000" fill-opacity="1" stroke-width="18" cx="128" cy="128" r="101"></circle><path fill="#ffffff" fill-opacity="1" d="M142.4 151.1h-33.8v-4.5q0-7.7 3.1-13.6 3.1-6 13-15.2l6-5.5q5.3-4.8 7.8-9.2 2.5-4.26 2.5-8.58 0-6.56-4.5-10.21-4.5-3.75-12.6-3.75-7.6 0-16.4 3.18-8.78 3.1-18.34 9.28V63.59q11.34-3.94 20.74-5.82 9.4-1.87 18.1-1.87 22.8 0 34.8 9.37 12 9.29 12 27.19 0 9.14-3.6 16.54-3.7 7.2-12.5 15.5l-6 5.4q-6.4 5.8-8.3 9.3-2 3.5-2 7.7zM108.6 165h33.8v33.4h-33.8z"></path></g></g></svg>