<svg xmlns="http://www.w3.org/2000/svg" viewBox="0 0 512 512" style="height: 150px; width: 150px;"><g class="" transform="translate(0,0)" style=""><path d="M149.725 16.338 90.627 79.926v348.678l59.098 63.582 18.584-61.58h51.895l37.91 61.58 37.91-61.58h51.895l18.584 61.58 59.098-63.582V79.926l-59.098-63.588-19.188 63.588v1.97h-50.058v-1.97l-39.143-63.588-39.142 63.588v1.97h-50.06v-1.97l-19.188-63.588zm19.187 84.244h50.06v142.486h-50.06V100.582zm128.346 0h50.058v142.486h-50.058V100.582zM168.912 261.756h50.06v150.162h-50.06V261.756zm128.346 0h50.058v150.162h-50.058V261.756z" fill="#fff" fill-opacity="1"></path></g><g class="" transform="translate(256,256)" style=""><g><circle cx="128" cy="128" r="128" fill="#000000" fill-opacity="1"></circle><circle stroke="#ffffff" stroke-opacity="1" fill="#000000" fill-opacity="1" stroke-width="18" cx="128" cy="128" r="101"></circle><path fill="#ffffff" fill-opacity="1" d="M64 119v18h128v-18z"></path></g></g></svg>